<svg width="408" height="408" viewBox="0 0 408 408" fill="none" xmlns="http://www.w3.org/2000/svg">
<g clip-path="url(#clip0)">
<path d="M88.6288 124.088H116.933V133.247H88.6288V124.088Z" fill="#CA9B6E"/>
<path d="M100.333 138.754C100.55 142.913 99.8951 150.928 96.5276 155.087C96.5276 155.087 94.2738 159.05 86.0195 162.577C88.3016 164.578 95.3394 166.134 98.4884 163.118C98.4884 167.017 100.883 175.005 102.968 175.005C105.053 175.005 107.448 167.017 107.448 163.118C110.597 166.134 117.634 164.578 119.917 162.577C111.662 159.05 109.408 155.087 109.408 155.087C106.041 150.928 104.827 142.913 105.044 138.754L100.333 138.754Z" fill="#CA9B6E"/>
<path d="M82.0112 136.562C80.8754 138.754 78.9237 144.687 83.0403 145.283C87.1569 145.878 91.4024 144.074 95.8806 137.916C95.8806 137.916 96.5384 142.649 95.0681 145.878C93.5977 149.108 91.8444 153.297 87.0751 154.667C82.3059 156.036 77.4613 155.628 75.1863 152.866C72.9113 150.103 72.9418 145.852 73.4834 143.793C73.4834 143.793 75.1863 136.562 82.0112 136.562Z" fill="#CA9B6E"/>
<path d="M124.195 136.562C125.331 138.754 127.282 144.687 123.166 145.283C119.049 145.878 114.804 144.074 110.325 137.916C110.325 137.916 109.667 142.649 111.138 145.878C112.608 149.108 114.362 153.297 119.131 154.667C123.9 156.036 128.745 155.628 131.02 152.866C133.295 150.103 133.264 145.852 132.722 143.793C132.722 143.793 131.02 136.562 124.195 136.562Z" fill="#CA9B6E"/>
<path d="M100.254 121.411C100.254 121.411 100.254 106.111 97.8142 100.011C95.3741 93.912 84.3865 78.7161 84.3865 66.387C84.3865 54.0579 99.023 33.9846 103.518 30.0148C107.994 33.9846 122.159 54.0579 122.159 66.387C122.159 78.7161 111.176 94.287 108.736 100.011C106.296 105.736 106.296 121.411 106.296 121.411H100.254Z" fill="#CA9B6E"/>
<path d="M135.813 101.675C132.869 98.8626 127.737 98.6801 123.19 101.675C113.675 108.793 112.013 121.411 112.013 121.411L108.736 121.411C108.218 116.052 109.365 103.117 115.488 94.2439C123.141 83.1526 127.118 79.1818 136.411 79.2927C145.705 79.4036 150.718 84.6893 153.047 91.3441C155.376 97.9989 154.246 104.046 152.361 108.441C150.475 112.835 141.352 121.411 130.685 117.338C141.107 109.585 136.763 102.583 135.813 101.675Z" fill="#CA9B6E"/>
<path d="M70.1675 101.675C73.1107 98.8626 78.2426 98.6801 82.7898 101.675C92.3054 108.793 93.9672 121.411 93.9672 121.411H97.2439C97.7615 116.052 96.6147 103.117 90.4923 94.2439C82.8393 83.1526 78.862 79.1818 69.5687 79.2927C60.2754 79.4036 55.2625 84.6893 52.9333 91.3441C50.6042 97.9989 51.7338 104.046 53.6194 108.441C55.5049 112.835 64.6281 121.411 75.2948 117.338C64.8727 109.585 69.2171 102.583 70.1675 101.675Z" fill="#CA9B6E"/>
<path d="M292.629 328.088H320.933V337.247H292.629V328.088Z" fill="#CA9B6E"/>
<path d="M304.333 342.754C304.55 346.913 303.895 354.928 300.528 359.087C300.528 359.087 298.274 363.05 290.019 366.577C292.302 368.578 299.339 370.134 302.488 367.118C302.488 371.017 304.883 379.005 306.968 379.005C309.053 379.005 311.448 371.017 311.448 367.118C314.597 370.134 321.634 368.578 323.917 366.577C315.662 363.05 313.408 359.087 313.408 359.087C310.041 354.928 308.827 346.913 309.044 342.754L304.333 342.754Z" fill="#CA9B6E"/>
<path d="M286.011 340.562C284.875 342.754 282.924 348.687 287.04 349.283C291.157 349.878 295.402 348.074 299.881 341.916C299.881 341.916 300.538 346.649 299.068 349.878C297.598 353.108 295.844 357.297 291.075 358.667C286.306 360.036 281.461 359.628 279.186 356.866C276.911 354.103 276.942 349.852 277.483 347.793C277.483 347.793 279.186 340.562 286.011 340.562Z" fill="#CA9B6E"/>
<path d="M328.195 340.562C329.331 342.754 331.282 348.687 327.166 349.283C323.049 349.878 318.804 348.074 314.325 341.916C314.325 341.916 313.667 346.649 315.138 349.878C316.608 353.108 318.362 357.297 323.131 358.667C327.9 360.036 332.745 359.628 335.02 356.866C337.295 354.103 337.264 349.852 336.722 347.793C336.722 347.793 335.02 340.562 328.195 340.562Z" fill="#CA9B6E"/>
<path d="M304.254 325.411C304.254 325.411 304.254 310.111 301.814 304.011C299.374 297.912 288.386 282.716 288.386 270.387C288.386 258.058 303.023 237.985 307.518 234.015C311.994 237.985 326.159 258.058 326.159 270.387C326.159 282.716 315.176 298.287 312.736 304.011C310.296 309.736 310.296 325.411 310.296 325.411H304.254Z" fill="#CA9B6E"/>
<path d="M339.813 305.675C336.869 302.863 331.737 302.68 327.19 305.675C317.675 312.793 316.013 325.411 316.013 325.411L312.736 325.411C312.218 320.052 313.365 307.117 319.488 298.244C327.141 287.153 331.118 283.182 340.411 283.293C349.705 283.404 354.718 288.689 357.047 295.344C359.376 301.999 358.246 308.046 356.361 312.441C354.475 316.835 345.352 325.411 334.685 321.338C345.107 313.585 340.763 306.583 339.813 305.675Z" fill="#CA9B6E"/>
<path d="M274.167 305.675C277.111 302.863 282.243 302.68 286.79 305.675C296.305 312.793 297.967 325.411 297.967 325.411H301.244C301.762 320.052 300.615 307.117 294.492 298.244C286.839 287.153 282.862 283.182 273.569 283.293C264.275 283.404 259.263 288.689 256.933 295.344C254.604 301.999 255.734 308.046 257.619 312.441C259.505 316.835 268.628 325.411 279.295 321.338C268.873 313.585 273.217 306.583 274.167 305.675Z" fill="#CA9B6E"/>
<rect x="396" y="407.992" width="16.9691" height="16.9664" transform="rotate(-45 396 407.992)" fill="#CA9B6E"/>
<rect x="396.001" y="204.127" width="16.9691" height="16.9664" transform="rotate(-45 396.001 204.127)" fill="#CA9B6E"/>
<rect x="396.002" y="0.260544" width="16.9691" height="16.9664" transform="rotate(-45 396.002 0.260544)" fill="#CA9B6E"/>
<rect x="294.991" y="102.51" width="16.9691" height="16.9664" transform="rotate(-45 294.991 102.51)" fill="#CA9B6E"/>
<rect x="191.997" y="203.988" width="16.9691" height="16.9664" transform="rotate(-45 191.997 203.988)" fill="#CA9B6E"/>
<rect x="192" y="407.991" width="16.9691" height="16.9664" transform="rotate(-45 192 407.991)" fill="#CA9B6E"/>
<rect x="191.999" y="-9.15527e-05" width="16.9691" height="16.9664" transform="rotate(-45 191.999 -9.15527e-05)" fill="#CA9B6E"/>
<rect x="-12" y="407.993" width="16.9691" height="16.9664" transform="rotate(-45 -12 407.993)" fill="#CA9B6E"/>
<rect x="-11.999" y="203.996" width="16.9691" height="16.9664" transform="rotate(-45 -11.999 203.996)" fill="#CA9B6E"/>
<rect x="90.993" y="306.035" width="16.9691" height="16.9664" transform="rotate(-45 90.993 306.035)" fill="#CA9B6E"/>
<rect x="-11.9981" y="-0.00105286" width="16.9691" height="16.9664" transform="rotate(-45 -11.9981 -0.00105286)" fill="#CA9B6E"/>
</g>
<defs>
<clipPath id="clip0">
<rect width="408" height="408" fill="white"/>
</clipPath>
</defs>
</svg>
