<svg width="130" height="106" viewBox="0 0 130 106" fill="none" xmlns="http://www.w3.org/2000/svg">
<g clip-path="url(#clip0)">
<circle cx="102.086" cy="86.0095" r="18.4905" stroke="#FF5E7F" stroke-width="2"/>
<rect x="101.604" y="68.0794" width="0.963987" height="35.8603" fill="#FF5E7F"/>
<rect x="85.3363" y="79.5932" width="0.963987" height="35.8603" transform="rotate(-67.5 85.3363 79.5932)" fill="#FF5E7F"/>
<rect x="84.1559" y="86.4915" width="0.963987" height="35.8603" transform="rotate(-90 84.1559 86.4915)" fill="#FF5E7F"/>
<rect x="85.7052" y="93.3164" width="0.963987" height="35.8603" transform="rotate(-112.5 85.7052 93.3164)" fill="#FF5E7F"/>
<rect x="94.7791" y="69.6287" width="0.963987" height="35.8603" transform="rotate(-22.5 94.7791 69.6287)" fill="#FF5E7F"/>
<rect x="89.0667" y="73.6718" width="0.963987" height="35.8603" transform="rotate(-45 89.0667 73.6718)" fill="#FF5E7F"/>
<rect x="114.424" y="72.9902" width="0.963987" height="35.8603" transform="rotate(45 114.424 72.9902)" fill="#FF5E7F"/>
<rect x="108.502" y="69.2598" width="0.963987" height="35.8603" transform="rotate(22.5 108.502 69.2598)" fill="#FF5E7F"/>
<circle cx="27.6321" cy="86.0095" r="18.4905" stroke="#FF5E7F" stroke-width="2"/>
<rect x="27.1501" y="68.0794" width="0.963987" height="35.8603" fill="#FF5E7F"/>
<rect x="10.8824" y="79.5932" width="0.963987" height="35.8603" transform="rotate(-67.5 10.8824 79.5932)" fill="#FF5E7F"/>
<rect x="9.70197" y="86.4915" width="0.963987" height="35.8603" transform="rotate(-90 9.70197 86.4915)" fill="#FF5E7F"/>
<rect x="11.2513" y="93.3164" width="0.963987" height="35.8603" transform="rotate(-112.5 11.2513 93.3164)" fill="#FF5E7F"/>
<rect x="20.3252" y="69.6287" width="0.963987" height="35.8603" transform="rotate(-22.5 20.3252 69.6287)" fill="#FF5E7F"/>
<rect x="14.6128" y="73.6718" width="0.963987" height="35.8603" transform="rotate(-45 14.6128 73.6718)" fill="#FF5E7F"/>
<rect x="39.9698" y="72.9902" width="0.963987" height="35.8603" transform="rotate(45 39.9698 72.9902)" fill="#FF5E7F"/>
<rect x="34.0484" y="69.2598" width="0.963987" height="35.8603" transform="rotate(22.5 34.0484 69.2598)" fill="#FF5E7F"/>
<path fill-rule="evenodd" clip-rule="evenodd" d="M64.758 16.1465C61.3877 16.1156 57.6986 17.1133 56.2754 17.616L54.529 12.538C54.529 12.538 53.9558 12.6685 53.7937 12.076C53.6317 11.4835 54.0035 11.0194 54.0035 11.0194C54.0035 11.0194 53.2831 9.69929 52.6848 8.14312C52.0865 6.58695 51.3455 4.04538 51.3455 4.04538C51.3455 4.04538 51.7215 4.33861 52.3145 4.50206C52.9075 4.66551 53.3064 4.85344 53.576 5.02194C54.1746 5.3961 54.6845 6.6219 54.6845 6.6219C54.6845 6.6219 54.7313 5.24213 55.3685 4.33192C56.0056 3.42171 56.9284 3.6462 56.9284 3.6462C56.9284 3.6462 57.6544 3.72512 58.0945 4.51932C58.5346 5.31352 58.3358 6.60353 58.3358 6.60353C58.3358 6.60353 57.9289 8.93391 57.9289 9.53575C57.9289 10.1376 57.9289 10.4385 58.1813 10.7604C58.4337 11.0823 58.8304 11.0194 58.8304 11.0194C58.8304 11.0194 58.3306 8.84633 59.8709 8.29008C61.4113 7.73384 61.7048 10.1236 61.7048 10.1236C61.7048 10.1236 62.2987 9.90998 62.3168 9.17409C62.3348 8.43821 62.1767 8.12439 61.8002 7.68001C61.723 7.58885 61.6049 7.48124 61.4642 7.35303L61.4642 7.35303C60.9191 6.85629 60.0347 6.05027 59.8709 4.69303C59.6649 2.98548 60.9981 2.29313 60.9981 2.29313C60.9981 2.29313 61.8094 1.93221 62.5143 2.42636C63.2191 2.92051 63.4669 3.76013 63.4669 3.76013C63.4669 3.76013 63.3942 3.12093 63.6481 2.60927C63.8801 2.14187 64.0838 1.86636 64.3108 1.55926L64.376 1.47095C64.6299 1.12601 64.8175 0.5 64.8175 0.5C64.8175 0.5 65.0882 1.08877 65.3421 1.43371L65.4073 1.52201L65.4073 1.52202L65.4073 1.52204C65.6344 1.82914 65.8381 2.10465 66.07 2.57203C66.3239 3.0837 66.2512 3.7229 66.2512 3.7229C66.2512 3.7229 66.499 2.88327 67.2038 2.38912C67.9087 1.89498 68.72 2.2559 68.72 2.2559C68.72 2.2559 70.0533 2.94824 69.8472 4.65579C69.6834 6.01304 68.799 6.81905 68.2539 7.31579C68.1132 7.444 67.9952 7.55161 67.9179 7.64277C67.5414 8.08715 67.3833 8.40098 67.4014 9.13686C67.4194 9.87275 68.0133 10.0864 68.0133 10.0864C68.0133 10.0864 68.3068 7.6966 69.8472 8.25285C71.3876 8.80909 70.8878 10.9821 70.8878 10.9821C70.8878 10.9821 71.2844 11.0451 71.5368 10.7232C71.7893 10.4013 71.7893 10.1004 71.7893 9.49852C71.7893 8.89668 71.3823 6.56629 71.3823 6.56629C71.3823 6.56629 71.1836 5.27628 71.6237 4.48208C72.0638 3.68788 72.7897 3.60896 72.7897 3.60896C72.7897 3.60896 73.7125 3.38448 74.3497 4.29469C74.9868 5.20489 75.0336 6.58466 75.0336 6.58466C75.0336 6.58466 75.5435 5.35887 76.1422 4.98471C76.4117 4.8162 76.8106 4.62827 77.4036 4.46482C77.9966 4.30137 78.3726 4.00814 78.3726 4.00814C78.3726 4.00814 77.6317 6.54972 77.0333 8.10589C76.435 9.66206 75.7146 10.9821 75.7146 10.9821C75.7146 10.9821 76.0865 11.4463 75.9244 12.0387C75.7623 12.6312 75.1892 12.5007 75.1892 12.5007L73.4428 17.5788C72.0195 17.076 68.1283 16.1156 64.758 16.1465ZM63.1665 11.855C62.5514 12.2252 61.5652 11.8979 61.2952 11.6269L61.5222 11.2063C61.7906 11.2483 62.3375 11.038 62.6678 10.7296C62.998 10.4212 63.1373 9.98655 63.1993 9.54491C63.239 9.26125 63.1724 9.04411 63.0868 8.7653C63.0391 8.61004 62.9856 8.43566 62.9413 8.22002C62.8174 7.61716 62.9722 7.09842 63.1683 7.04935C63.3644 7.00028 63.5192 7.28068 63.7308 7.67324C63.9 7.98729 63.9641 8.48173 63.9676 8.68969C63.756 8.78082 63.3339 9.07945 63.338 9.54491C63.3421 10.0104 63.8936 10.3978 64.1688 10.5333C64.1425 10.5838 64.1151 10.6414 64.0853 10.7041C63.922 11.0472 63.6866 11.542 63.1665 11.855ZM68.3301 11.6269C68.0601 11.8979 67.0739 12.2252 66.4588 11.855C65.9387 11.542 65.7033 11.0472 65.54 10.7041C65.5102 10.6414 65.4828 10.5838 65.4565 10.5333C65.7317 10.3978 66.2831 10.0104 66.2873 9.54491C66.2914 9.07945 65.8693 8.78082 65.6577 8.68969C65.6612 8.48173 65.7253 7.98729 65.8945 7.67324C66.1061 7.28068 66.2609 7.00028 66.457 7.04935C66.6531 7.09842 66.8079 7.61716 66.684 8.22002C66.6397 8.43566 66.5862 8.61004 66.5385 8.7653C66.4529 9.0441 66.3863 9.26125 66.426 9.54491C66.488 9.98655 66.6273 10.4212 66.9575 10.7296C67.2878 11.038 67.8347 11.2483 68.1031 11.2063L68.3301 11.6269ZM56.3202 9.82326L55.2832 9.15169L55.3194 10.2C55.3194 10.2 56.0368 10.0935 56.2056 10.7242C56.3744 11.3548 55.9946 11.7315 55.9946 11.7315C55.9946 11.7315 56.3744 13.2057 57.7429 13.3122C59.1114 13.4187 59.5817 12.0346 59.5817 12.0346C59.5817 12.0346 59.3644 11.8806 59.226 11.7315C59.0875 11.5825 58.9487 11.2811 58.9487 11.2811C58.9487 11.2811 57.8695 12.2721 57.0315 11.5677C56.2174 10.8834 56.291 10.1243 56.3179 9.84639L56.3202 9.82326ZM74.2805 9.20041L73.2436 9.87198C73.2443 9.87927 73.245 9.88699 73.2458 9.89511C73.2727 10.1731 73.3464 10.9321 72.5322 11.6164C71.6942 12.3208 70.6151 11.3298 70.6151 11.3298C70.6151 11.3298 70.4762 11.6312 70.3378 11.7802C70.1993 11.9293 69.9821 12.0833 69.9821 12.0833C69.9821 12.0833 70.4523 13.4674 71.8208 13.3609C73.1893 13.2544 73.5691 11.7802 73.5691 11.7802C73.5691 11.7802 73.1893 11.4035 73.3581 10.7729C73.5269 10.1423 74.2443 10.2487 74.2443 10.2487L74.2805 9.20041Z" fill="#FF5E7F"/>
<path d="M81.255 82.9257H48.4632M31.7246 64.745V52.6378C31.7246 43.7373 28.5967 31.7837 21.1403 21.9935C21.1403 21.9935 35.6245 30.0695 44.4994 26.7848C53.3744 23.5002 54.1148 18.8414 64.8823 18.8414C75.6498 18.8414 76.3437 23.5002 85.2187 26.7848C94.0937 30.0695 108.578 21.9935 108.578 21.9935C101.121 31.7837 97.9935 43.7373 97.9935 52.6378V64.8043" stroke="#FF5E7F" stroke-width="2"/>
<path d="M18.5666 24.6302C20.0836 24.5377 19.9984 23.6665 20.3438 22.5996C21.5093 22.5996 22.3854 23.3582 23.2023 24.2882C24.6232 25.9059 25.5356 28.3269 25.5356 28.3269C25.5356 28.3269 24.3866 27.8238 22.0866 27.7812C19.7866 27.7386 19.1109 28.1302 18.8118 28.1302C18.5128 28.1302 18.6271 26.7382 17.6096 26.8862C16.592 27.0342 15.3956 28.8668 16.18 28.8668C17.1606 28.8668 17.7526 29.2183 17.7526 29.9583C17.7526 30.8463 17.3086 31.3273 15.6435 31.3273C14.5028 31.3273 13.9045 29.9398 13.9045 28.8668C13.9045 27.7937 15.3845 27.0167 15.6435 26.4062C15.9025 25.7957 14.8758 25.3447 13.9045 24.2787C12.9332 23.2126 12.9694 21.2843 13.516 20.0051C14.0625 18.7258 15.958 17.8035 17.5676 17.8035C19.1771 17.8035 20.0836 18.7396 20.0836 20.2271C20.0836 21.7145 19.3758 22.7801 18.1966 22.7801C17.0174 22.7801 16.5968 22.2912 16.5131 21.4111C16.4293 20.5309 17.6046 20.1716 17.3826 20.0051C17.1606 19.8385 16.2725 20.0051 15.6435 20.4121C15.0145 20.8191 15.07 22.0401 15.1995 22.6506C15.329 23.2611 16.4391 24.7599 18.5666 24.6302Z" fill="#FF5E7F"/>
<path d="M111.145 24.6059C109.628 24.5134 109.713 23.6422 109.368 22.5753C108.202 22.5753 107.326 23.3339 106.509 24.2639C105.088 25.8816 104.176 28.3027 104.176 28.3027C104.176 28.3027 105.325 27.7996 107.625 27.757C109.925 27.7143 110.6 28.1059 110.899 28.1059C111.199 28.1059 111.084 26.7139 112.102 26.8619C113.119 27.0099 114.316 28.8425 113.531 28.8425C112.551 28.8425 111.959 29.194 111.959 29.934C111.959 30.8221 112.403 31.3031 114.068 31.3031C115.208 31.3031 115.807 29.9155 115.807 28.8425C115.807 27.7695 114.327 26.9925 114.068 26.3819C113.809 25.7714 114.835 25.3204 115.807 24.2544C116.778 23.1883 116.742 21.2601 116.195 19.9808C115.649 18.7015 113.753 17.7792 112.144 17.7792C110.534 17.7792 109.628 18.7154 109.628 20.2028C109.628 21.6902 110.336 22.7559 111.515 22.7559C112.694 22.7559 113.114 22.267 113.198 21.3868C113.282 20.5067 112.107 20.1473 112.329 19.9808C112.551 19.8143 113.439 19.9808 114.068 20.3878C114.697 20.7948 114.641 22.0158 114.512 22.6264C114.382 23.2369 113.272 24.7356 111.145 24.6059Z" fill="#FF5E7F"/>
<path d="M92.548 52.6426H76.6678C76.6678 52.6426 76.5888 48.9385 76.6678 41.5834C76.7467 34.2282 76.6678 30.7782 76.6678 30.7782C76.6678 30.7782 79.9517 32.7827 85.9734 33.9609C91.9951 35.1391 95.3003 33.9609 95.3003 33.9609C95.3003 33.9609 93.8276 40.772 93.2932 44.7935C92.7587 48.815 92.548 52.6426 92.548 52.6426Z" stroke="#FF5E7F"/>
<path d="M64.6751 52.6426H56.4185V29.2274C56.4185 29.2274 58.193 28.5856 60.5468 27.2092C62.9006 25.8328 64.6751 24.219 64.6751 24.219C64.6751 24.219 66.4559 25.7947 68.8033 27.2092C71.1508 28.6237 72.9316 29.2274 72.9316 29.2274V52.6426H64.6751Z" stroke="#FF5E7F"/>
<path d="M56.4185 76.781H64.6751H72.9316V54.2646H64.6751H56.4185V76.781Z" stroke="#FF5E7F"/>
<path d="M37.1701 52.6426H53.0503C53.0503 52.6426 53.1292 48.9385 53.0503 41.5834C52.9714 34.2282 53.0503 30.7782 53.0503 30.7782C53.0503 30.7782 49.7664 32.7827 43.7447 33.9609C37.7229 35.1391 34.4178 33.9609 34.4178 33.9609C34.4178 33.9609 35.8904 40.772 36.4249 44.7935C36.9593 48.815 37.1701 52.6426 37.1701 52.6426Z" stroke="#FF5E7F"/>
<path d="M73.6192 16.9536C76.0427 17.7067 84.4715 24.5201 89.3332 24.6077C94.1948 24.6953 104.565 22.5866 108.23 21.6132" stroke="#FF5E7F" stroke-width="1.3"/>
<path d="M56.1223 16.9849C52.4259 18.005 45.5497 24.5201 40.6881 24.6077C35.8264 24.6953 25.4563 22.5867 21.7917 21.6132" stroke="#FF5E7F" stroke-width="1.3"/>
<path d="M64.399 24.3689C65.135 28.7445 67.2206 37.5449 69.6743 37.7412C68.9791 39.7859 68.7622 46.36 70.2339 46.8864C71.7057 47.4128 72.0052 47.3104 72.7413 47.6785" stroke="#FF5E7F"/>
<path d="M64.7413 24.3689C64.0052 28.7445 61.9196 37.5449 59.466 37.7412C60.1612 39.7859 60.3781 46.36 58.9064 46.8864C57.4346 47.4128 57.135 47.3104 56.399 47.6785" stroke="#FF5E7F"/>
<path d="M76.8956 31.0379C77.3509 32.8591 81.7868 37.1335 85.0651 38.0853C88.3434 39.0371 89.1436 38.9453 91.5899 38.0853C91.5899 38.0853 89.8937 45.7914 93.292 43.7071C91.7594 44.6471 88.6351 50.5626 88.7084 52.3187" stroke="#FF5E7F"/>
<path d="M52.7994 31.0379C52.3441 32.8591 47.9082 37.1335 44.6299 38.0853C41.3516 39.0371 40.5514 38.9453 38.1051 38.0853C38.1051 38.0853 39.8013 45.7914 36.403 43.7071C37.9356 44.6471 41.0599 50.5626 40.9865 52.3187" stroke="#FF5E7F"/>
<rect x="58.339" y="56.134" width="12.8046" height="19.005" stroke="#FF5E7F"/>
<path d="M57.1022 87.1176V82.9257H71.6957V87.1176M57.1022 87.1176V91.3095H71.6957V87.1176M57.1022 87.1176H71.6957" stroke="#FF5E7F"/>
<path d="M90.0913 55.226C90.0913 55.226 90.6183 54.2094 91.5904 54.7073C92.3575 55.1002 92.4416 56.3412 91.0586 57.3566C90.5719 57.7139 89.3987 58.0066 88.5602 56.857C87.7216 55.7075 87.5352 54.3741 86.6637 54.346C85.7922 54.318 84.6848 57.3566 84.6848 57.3566C84.6848 57.3566 83.5773 54.318 82.7059 54.346C81.8344 54.3741 81.6479 55.7075 80.8094 56.857C79.9709 58.0066 78.7977 57.7139 78.311 57.3566C76.928 56.3412 77.0121 55.1002 77.7791 54.7073C78.7513 54.2094 79.2783 55.226 79.2783 55.226" stroke="#FF5E7F"/>
<path d="M50.7511 55.226C50.7511 55.226 51.2781 54.2094 52.2502 54.7073C53.0173 55.1002 53.1014 56.3412 51.7184 57.3566C51.2317 57.7139 50.0584 58.0066 49.2199 56.857C48.3814 55.7075 48.1949 54.3741 47.3235 54.346C46.452 54.318 45.3445 57.3566 45.3445 57.3566C45.3445 57.3566 44.2371 54.318 43.3656 54.346C42.4942 54.3741 42.3077 55.7075 41.4692 56.857C40.6307 58.0066 39.4574 57.7139 38.9707 57.3566C37.5877 56.3412 37.6718 55.1002 38.4389 54.7073C39.411 54.2094 39.938 55.226 39.938 55.226" stroke="#FF5E7F"/>
<circle cx="90.3926" cy="55.3778" r="0.840819" fill="#FF5E7F"/>
<circle cx="78.9736" cy="55.3778" r="0.840819" fill="#FF5E7F"/>
<circle cx="51.054" cy="55.3778" r="0.840819" fill="#FF5E7F"/>
<circle cx="39.635" cy="55.3778" r="0.840819" fill="#FF5E7F"/>
<path d="M11.3388 69.3631C14.5686 69.4543 16.4562 67.9351 16.4562 67.9351L15.4997 66.7734C15.4997 66.7734 13.8708 67.8125 11.5365 67.9351C9.20223 68.0578 7.3151 65.5816 7.70643 63.2515C8.06704 61.1043 10.5501 58.7403 12.1845 59.9302C12.9321 60.4744 12.9671 60.518 13.4885 61.2912C13.4885 61.2912 9.30758 61.9401 10.1569 63.7549C11.0063 65.5696 13.1762 65.9768 14.5713 65.2684C16.795 64.1392 15.4858 60.457 13.479 58.9763C11.0094 57.1543 7.4618 58.5685 6.18576 61.9029C4.90972 65.2373 8.10901 69.2718 11.3388 69.3631Z" fill="#FF5E7F" stroke="#FF5E7F" stroke-width="0.5"/>
<path d="M118.257 69.2797C115.028 69.371 113.14 67.8517 113.14 67.8517L114.097 66.6901C114.097 66.6901 115.725 67.7291 118.06 67.8517C120.394 67.9744 122.281 65.4983 121.89 63.1681C121.529 61.0209 119.046 58.6569 117.412 59.8468C116.664 60.3911 116.629 60.4346 116.108 61.2078C116.108 61.2078 120.289 61.8567 119.439 63.6715C118.59 65.4862 116.42 65.8934 115.025 65.185C112.801 64.0558 114.11 60.3736 116.117 58.893C118.587 57.071 122.134 58.4851 123.41 61.8195C124.686 65.1539 121.487 69.1884 118.257 69.2797Z" fill="#FF5E7F" stroke="#FF5E7F" stroke-width="0.5"/>
<path d="M15.7174 67.5263C28.6266 59.0177 47.7612 66.5481 49.4895 83.8309" stroke="#FF5E7F" stroke-width="2"/>
<path d="M114.027 67.4908C101.118 58.9822 81.9832 66.5126 80.2549 83.7954" stroke="#FF5E7F" stroke-width="2"/>
</g>
<defs>
<clipPath id="clip0">
<rect width="128.851" height="106" fill="white" transform="translate(0.917633)"/>
</clipPath>
</defs>
</svg>
