<svg width="111" height="132" viewBox="0 0 111 132" fill="none" xmlns="http://www.w3.org/2000/svg">
<g clip-path="url(#clip0)">
<g filter="url(#filter0_f)">
<path d="M47.3529 131.875L47.3529 47.8416L75.7255 42.4604C86.7231 40.3746 98.1017 42.5955 107.508 48.6639L112.003 51.5642C115.133 53.5832 117.711 56.3488 119.506 59.612C125.149 69.8732 121.96 82.7487 112.179 89.1891L47.3529 131.875Z" fill="url(#paint0_linear)"/>
</g>
<circle cx="48.0587" cy="48.0587" r="48.0587" fill="#C9B065"/>
<circle cx="48.0587" cy="48.0587" r="48.0587" fill="#EF4E69"/>
<path d="M48.0587 131.796L8.28918 75.0526H87.8204L48.0587 131.796Z" fill="#C9B065"/>
<path d="M48.0587 131.796L8.28918 75.0526H87.8204L48.0587 131.796Z" fill="#EF4E69"/>
</g>
<defs>
<filter id="filter0_f" x="6.91591" y="18.6302" width="126.864" height="134.584" filterUnits="userSpaceOnUse" color-interpolation-filters="sRGB">
<feFlood flood-opacity="0" result="BackgroundImageFix"/>
<feBlend mode="normal" in="SourceGraphic" in2="BackgroundImageFix" result="shape"/>
<feGaussianBlur stdDeviation="1.5" result="effect1_foregroundBlur"/>
</filter>
<linearGradient id="paint0_linear" x1="59.9582" y1="58.5764" x2="107.191" y2="72.8894" gradientUnits="userSpaceOnUse">
<stop stop-color="#9D9D9D" stop-opacity="0.76"/>
<stop offset="0.639062" stop-color="#C1C1C1" stop-opacity="0.64"/>
<stop offset="1" stop-color="#C1C1C1" stop-opacity="0"/>
</linearGradient>
<clipPath id="clip0">
<rect width="111" height="132" fill="white"/>
</clipPath>
</defs>
</svg>
